<svg width="550" height="319" viewBox="0 0 550 319" fill="none" xmlns="http://www.w3.org/2000/svg">
<g clip-path="url(#clip0_515_447)">
<path d="M549.998 229.119H411.781V230.266H549.998V229.119Z" fill="white"/>
<path d="M344.686 279.014H101.516V280.161H344.686V279.014Z" fill="white"/>
<path d="M329.89 191.905L259.336 262.458C248.55 273.243 233.921 279.302 218.668 279.302C203.415 279.302 188.787 273.243 178 262.458C177.048 261.506 176.131 260.526 175.259 259.516C173.823 257.876 172.484 256.152 171.25 254.355C166.725 247.809 163.63 240.383 162.166 232.561C161.839 230.858 161.592 229.137 161.426 227.399C161.248 225.547 161.158 223.677 161.156 221.79C161.151 216.514 161.869 211.261 163.29 206.179C163.777 204.43 164.349 202.71 165.005 201.018C167.901 193.552 172.328 186.775 178 181.123L208.781 150.342C210.394 148.729 212.582 147.823 214.863 147.823C217.144 147.823 219.332 148.729 220.945 150.342C222.558 151.955 223.464 154.143 223.464 156.424C223.464 158.705 222.558 160.893 220.945 162.506L190.165 193.287C187.839 195.609 185.803 198.205 184.103 201.018C180.326 207.287 178.34 214.472 178.362 221.79C178.362 223.667 178.491 225.541 178.746 227.399C178.985 229.142 179.342 230.866 179.813 232.561C181.692 239.355 185.32 245.537 190.336 250.491C195.351 255.444 201.578 258.996 208.395 260.79C215.212 262.585 222.38 262.56 229.184 260.718C235.989 258.877 242.191 255.282 247.172 250.294L264.905 232.561L296.448 201.018L317.726 179.74C324.416 173.032 328.533 164.184 329.359 154.746C330.184 145.308 327.664 135.88 322.239 128.113C320.962 126.24 320.475 123.939 320.884 121.71C321.293 119.481 322.566 117.503 324.424 116.206C326.283 114.909 328.579 114.398 330.812 114.784C333.046 115.169 335.037 116.42 336.353 118.265C344.083 129.349 347.67 142.797 346.489 156.258C345.307 169.719 339.432 182.337 329.89 191.905Z" fill="white"/>
<path d="M440.458 57.5117C440.458 57.9361 440.452 58.3605 440.441 58.7849C440.293 66.2924 438.67 73.6975 435.663 80.5784C434.893 82.3425 434.032 84.0654 433.083 85.74C430.506 90.2971 427.32 94.482 423.614 98.1796L392.833 128.96C391.22 130.569 389.033 131.472 386.754 131.471C384.475 131.469 382.289 130.563 380.678 128.951C379.066 127.34 378.16 125.155 378.159 122.875C378.157 120.596 379.06 118.41 380.669 116.796L411.45 86.0153C411.541 85.9236 411.633 85.8318 411.719 85.74C418.822 78.5308 422.934 68.901 423.23 58.7849C423.247 58.3605 423.253 57.9361 423.253 57.5117C423.253 56.2041 423.191 54.9079 423.069 53.6233C422.171 44.3181 418.063 35.6155 411.45 29.008C410.836 28.3944 410.211 27.8037 409.563 27.2416C402.205 20.7729 392.743 17.2051 382.946 17.2051C373.149 17.2051 363.687 20.7729 356.329 27.2416C355.681 27.8037 355.056 28.3944 354.442 29.008L283.889 99.5617C276.341 107.128 272.103 117.379 272.103 128.065C272.103 138.752 276.341 149.003 283.889 156.569C285.502 158.182 286.408 160.37 286.408 162.651C286.408 164.932 285.502 167.12 283.889 168.733C282.276 170.346 280.088 171.253 277.807 171.253C275.525 171.253 273.338 170.346 271.725 168.733C260.955 157.939 254.906 143.314 254.906 128.065C254.906 112.817 260.955 98.1918 271.725 87.3975L342.278 16.8438C348.416 10.7184 355.859 6.05876 364.05 3.21267C372.241 0.366578 380.97 -0.592395 389.584 0.407337C398.197 1.40707 406.474 4.33968 413.796 8.98623C421.117 13.6328 427.295 19.8732 431.867 27.2416C432.908 28.9101 433.86 30.6332 434.717 32.4032C437.943 39.0466 439.848 46.2534 440.326 53.6233C440.412 54.9137 440.456 56.2098 440.458 57.5117Z" fill="#FAF7FF"/>
<path d="M71.8679 302.051C69.2406 311.763 60.2415 317.778 60.2415 317.778C60.2415 317.778 55.502 308.047 58.1293 298.335C60.7567 288.622 69.7558 282.607 69.7558 282.607C69.7558 282.607 74.4953 292.339 71.8679 302.051Z" fill="#00D975"/>
<path d="M47.9653 302.051C50.5926 311.763 59.5918 317.778 59.5918 317.778C59.5918 317.778 64.3312 308.047 61.7039 298.335C59.0766 288.622 50.0774 282.607 50.0774 282.607C50.0774 282.607 45.338 292.339 47.9653 302.051Z" fill="#00D975"/>
<path d="M51.8301 299.964C59.0395 306.982 59.9201 317.77 59.9201 317.77C59.9201 317.77 49.1119 317.18 41.9025 310.162C34.6931 303.144 33.8125 292.355 33.8125 292.355C33.8125 292.355 44.6206 292.946 51.8301 299.964Z" fill="white"/>
<path d="M68.0119 299.964C60.8025 306.982 59.9219 317.77 59.9219 317.77C59.9219 317.77 70.7301 317.18 77.9395 310.162C85.1488 303.144 86.0294 292.355 86.0294 292.355C86.0294 292.355 75.2213 292.946 68.0119 299.964Z" fill="#FAF7FF"/>
<path d="M391.714 56.4914C391.714 57.2618 391.637 58.0303 391.485 58.7855C390.955 61.376 389.547 63.7043 387.499 65.3763C385.451 67.0484 382.888 67.9617 380.244 67.9617C377.6 67.9617 375.037 67.0484 372.988 65.3763C370.94 63.7043 369.532 61.376 369.003 58.7855C368.657 57.0769 368.703 55.3125 369.135 53.6238C369.83 50.9181 371.49 48.5592 373.801 46.99C376.113 45.4208 378.917 44.7492 381.689 45.1012C384.46 45.4532 387.008 46.8046 388.854 48.9017C390.7 50.9989 391.717 53.6976 391.714 56.4914V56.4914Z" fill="#00D975"/>
<path d="M229.941 230.482C229.94 231.252 229.864 232.021 229.711 232.776C229.182 235.366 227.774 237.695 225.726 239.367C223.677 241.039 221.114 241.952 218.47 241.952C215.826 241.952 213.263 241.039 211.215 239.367C209.167 237.695 207.759 235.366 207.229 232.776C206.884 231.067 206.929 229.303 207.361 227.614C208.057 224.908 209.716 222.549 212.028 220.98C214.339 219.411 217.144 218.739 219.915 219.091C222.687 219.443 225.235 220.795 227.081 222.892C228.926 224.989 229.943 227.688 229.941 230.482V230.482Z" fill="#00D975"/>
<path d="M132.482 316.867H0V318.014H132.482V316.867Z" fill="white"/>
<path d="M331.88 27.2422H356.329C355.681 27.8042 355.056 28.395 354.442 29.0086L351.047 32.4038H326.719L331.88 27.2422Z" fill="black"/>
<path d="M434.717 32.4038H414.483C413.537 31.2157 412.524 30.0822 411.449 29.0086C410.836 28.395 410.211 27.8042 409.562 27.2422H431.866C432.908 28.9107 433.859 30.6337 434.717 32.4038V32.4038Z" fill="black"/>
<path d="M305.498 53.623H329.826L324.664 58.7847H300.336L305.498 53.623Z" fill="black"/>
<path d="M391.353 53.623C391.785 55.3117 391.83 57.0762 391.485 58.7847H369.003C368.657 57.0762 368.703 55.3117 369.135 53.623H391.353Z" fill="black"/>
<path d="M440.459 57.5115C440.459 57.9359 440.454 58.3603 440.442 58.7847H423.231C423.248 58.3603 423.254 57.9359 423.254 57.5115C423.254 56.2039 423.193 54.9077 423.07 53.623H440.327C440.413 54.9135 440.457 56.2096 440.459 57.5115Z" fill="black"/>
<path d="M278.544 80.5781H302.873L297.711 85.7397H273.383L278.544 80.5781Z" fill="black"/>
<path d="M435.663 80.5781C434.893 82.3422 434.031 84.0651 433.082 85.7397H411.719C413.293 84.1432 414.73 82.4165 416.014 80.5781H435.663Z" fill="black"/>
<path d="M184.102 201.018C183.105 202.673 182.229 204.398 181.481 206.179H163.289C163.777 204.43 164.348 202.709 165.004 201.018H184.102Z" fill="black"/>
<path d="M320.779 201.018L315.618 206.179H291.289L296.451 201.018H320.779Z" fill="black"/>
<path d="M179.817 232.56H162.17C161.843 230.857 161.596 229.136 161.43 227.398H178.75C178.989 229.141 179.346 230.865 179.817 232.56V232.56Z" fill="black"/>
<path d="M229.941 230.483C229.94 231.253 229.864 232.022 229.711 232.777H207.229C206.884 231.068 206.929 229.304 207.361 227.615H229.579C229.819 228.552 229.941 229.516 229.941 230.483Z" fill="black"/>
<path d="M294.396 227.398L289.235 232.56H264.906L270.068 227.398H294.396Z" fill="black"/>
<path d="M204.422 259.515H175.259C173.822 257.875 172.484 256.151 171.25 254.354H194.902C197.826 256.499 201.029 258.235 204.422 259.515V259.515Z" fill="black"/>
<path d="M267.44 254.354L262.278 259.515H232.914C236.307 258.235 239.51 256.499 242.434 254.354H267.44Z" fill="black"/>
<path d="M180.999 97.3446C176.614 89.9357 167.939 89.5904 167.939 89.5904C167.939 89.5904 159.486 88.5095 154.063 99.7933C149.009 110.311 142.033 120.465 152.94 122.927L154.91 116.796L156.13 123.384C157.683 123.496 159.241 123.522 160.797 123.464C172.478 123.087 183.601 123.574 183.243 119.383C182.767 113.811 185.218 104.473 180.999 97.3446Z" fill="#2F2E41"/>
<path d="M149.398 260.95L149.972 275.861H160.295L159.722 259.803L149.398 260.95Z" fill="#FBBEBE"/>
<path d="M177.503 155.422L176.46 158.891L162.936 203.815L161.445 208.759L162.592 261.522L148.254 263.242C148.254 263.242 147.836 257.702 147.222 249.524C145.989 233.328 143.97 206.768 142.8 192.316C142.37 186.971 142.06 183.283 141.946 182.377C141.372 177.789 148.828 154.848 148.828 154.848L163.739 153.701L177.503 155.422Z" fill="#5B5B5B"/>
<path d="M152.841 274.14C152.841 274.14 148.826 269.552 148.252 272.993C147.679 276.434 140.797 289.625 140.797 289.625C140.797 289.625 120.724 302.815 137.929 303.962C137.929 303.962 146.532 302.815 149.399 298.227C149.399 298.227 153.988 295.36 155.135 295.36C156.282 295.36 163.164 293.066 162.017 289.625C160.87 286.183 161.443 273.566 161.443 273.566L152.841 274.14Z" fill="#B5CFE4"/>
<path d="M152.266 247.184L157.427 256.934L165.456 252.919L160.295 241.449L152.266 247.184Z" fill="#FBBEBE"/>
<path opacity="0.2" d="M148.253 219.082C148.253 219.082 143.975 209.734 142.805 195.282C151.109 186.002 161.157 175.782 161.157 175.782L173.201 175.209L176.929 174.922C177.801 183.639 170.425 194.869 162.935 203.816C158.383 209.223 153.479 214.323 148.253 219.082V219.082Z" fill="black"/>
<path d="M163.166 175.495C163.166 175.495 126.461 207.612 131.622 220.803C136.784 233.993 151.122 250.052 151.122 250.052L162.199 243.44L151.695 219.082C151.695 219.082 156.099 215.177 161.459 209.391C170.181 199.975 181.437 185.578 180.371 174.921L179.798 155.422L170.048 156.569L163.166 175.495Z" fill="#5B5B5B"/>
<path d="M160.497 254.02C160.497 254.02 156.483 254.02 157.056 257.461C157.63 260.902 158.777 266.637 158.777 266.637C158.777 266.637 154.189 293.593 165.085 287.284C175.982 280.975 173.114 264.343 173.114 264.343C173.114 264.343 177.129 254.02 171.967 252.873C166.806 251.726 165.085 250.579 164.512 251.153C163.938 251.726 160.497 254.02 160.497 254.02Z" fill="#B5CFE4"/>
<path d="M167.753 114.129C173.454 114.129 178.076 109.507 178.076 103.806C178.076 98.1043 173.454 93.4824 167.753 93.4824C162.052 93.4824 157.43 98.1043 157.43 103.806C157.43 109.507 162.052 114.129 167.753 114.129Z" fill="#FBBEBE"/>
<path d="M163.739 107.82C163.739 107.82 168.327 119.864 166.607 120.438C164.886 121.011 161.445 123.879 161.445 123.879L167.18 129.04L182.092 121.011C182.092 121.011 175.21 111.835 175.783 107.82H163.739Z" fill="#FBBEBE"/>
<path d="M182.093 118.717C182.093 118.717 170.093 124.633 165.77 120.814C165.77 120.814 158.579 120.437 157.432 124.452C156.285 128.467 158.579 131.908 155.712 133.055C152.844 134.202 150.837 137.356 152.557 142.518C154.278 147.679 153.991 148.54 151.697 150.26C149.403 151.981 147.109 155.422 147.109 156.569C147.109 157.716 144.815 157.716 145.962 158.863C147.109 160.01 144.815 158.863 147.109 160.01C149.403 161.157 155.712 150.834 160.3 155.995C164.888 161.157 179.226 169.76 180.373 164.598C181.52 159.436 184.961 146.819 184.961 146.819C184.961 146.819 197.005 124.452 193.563 122.158C190.122 119.864 182.093 118.717 182.093 118.717Z" fill="#B5CFE4"/>
<path d="M180.369 158.863C180.369 158.863 174.061 157.716 172.34 161.73C170.62 165.745 160.87 174.921 167.178 175.495C173.487 176.068 178.075 165.745 178.075 165.745L184.384 164.598L180.369 158.863Z" fill="#FBBEBE"/>
<path d="M186.682 122.158L194.183 122.576C194.183 122.576 197.579 126.173 198.153 129.614C198.726 133.055 209.623 158.863 202.741 161.731C195.858 164.598 180.947 166.319 180.947 166.319L179.227 158.29L188.976 154.849L182.094 140.511L186.682 122.158Z" fill="#B5CFE4"/>
<path opacity="0.2" d="M152.556 219.37L161.99 242.955L150.836 219.37L160.586 209.047L152.556 219.37Z" fill="black"/>
<path opacity="0.2" d="M146.898 245.33L150.831 250.339H147.963L146.898 245.33Z" fill="black"/>
<path d="M168.999 95.9003C172.463 95.9003 175.271 93.092 175.271 89.6279C175.271 86.1637 172.463 83.3555 168.999 83.3555C165.535 83.3555 162.727 86.1637 162.727 89.6279C162.727 93.092 165.535 95.9003 168.999 95.9003Z" fill="#2F2E41"/>
<path d="M162.069 87.9775C162.069 86.4283 162.642 84.9341 163.678 83.7825C164.715 82.6309 166.14 81.9035 167.681 81.7403C167.461 81.7171 167.241 81.7053 167.021 81.7051C166.196 81.7043 165.38 81.866 164.618 82.1808C163.857 82.4957 163.165 82.9576 162.581 83.5401C161.998 84.1226 161.536 84.8144 161.22 85.5758C160.905 86.3372 160.742 87.1533 160.742 87.9775C160.742 88.8017 160.905 89.6178 161.22 90.3792C161.536 91.1406 161.998 91.8323 162.581 92.4149C163.165 92.9974 163.857 93.4593 164.618 93.7741C165.38 94.089 166.196 94.2507 167.021 94.2499C167.241 94.2496 167.461 94.2378 167.681 94.2146C166.14 94.0515 164.715 93.3241 163.678 92.1725C162.642 91.0209 162.069 89.5266 162.069 87.9775V87.9775Z" fill="#2F2E41"/>
<path d="M179.058 96.6315L170.487 92.1426L158.652 93.979L156.203 104.794L162.299 104.559L164.002 100.586V104.494L166.814 104.385L168.447 98.0601L169.467 104.794L179.465 104.59L179.058 96.6315Z" fill="#2F2E41"/>
<path d="M466.805 43.7549C474.529 43.7549 480.79 37.4937 480.79 29.7701C480.79 22.0464 474.529 15.7852 466.805 15.7852C459.082 15.7852 452.82 22.0464 452.82 29.7701C452.82 37.4937 459.082 43.7549 466.805 43.7549Z" fill="#2F2E41"/>
<path d="M456.929 38.178C456.929 38.178 458.026 49.8778 455.467 53.1684C452.907 56.4589 457.112 62.8572 457.112 62.8572L464.79 71.9977L476.124 66.879L477.769 57.373L476.673 50.7918C476.673 50.7918 472.834 46.9528 474.479 40.0061C476.124 33.0593 456.929 38.178 456.929 38.178Z" fill="#FFB9B9"/>
<path opacity="0.1" d="M456.929 38.178C456.929 38.178 458.026 49.8778 455.467 53.1684C452.907 56.4589 457.112 62.8572 457.112 62.8572L464.79 71.9977L476.124 66.879L477.769 57.373L476.673 50.7918C476.673 50.7918 472.834 46.9528 474.479 40.0061C476.124 33.0593 456.929 38.178 456.929 38.178Z" fill="black"/>
<path d="M463.516 257.001V264.496L473.57 266.507L472.656 254.076L463.516 257.001Z" fill="#FFB9B9"/>
<path d="M493.678 254.076L491.484 264.496L495.872 267.603L503.55 261.937L502.636 252.979L493.678 254.076Z" fill="#FFB9B9"/>
<path d="M474.48 265.594C474.48 265.594 470.641 259.105 463.512 263.172C463.512 263.172 462.232 270.347 460.952 270.895C459.673 271.444 452.543 281.864 460.952 282.778C469.362 283.692 473.566 280.95 473.566 280.95C473.566 280.95 471.921 282.365 474.48 281.634C477.04 280.903 475.943 276.881 475.943 276.881L474.48 265.594Z" fill="#828282"/>
<path d="M499.522 261.205C499.522 261.205 493.855 265.227 492.941 263.399C492.027 261.571 490.564 261.754 490.564 261.754C490.564 261.754 485.446 281.05 488.736 281.964C490.855 282.485 493.081 282.37 495.134 281.633C495.134 281.633 499.522 278.561 499.522 280.937C499.522 283.314 511.77 283.143 516.889 282.96C522.007 282.777 519.265 278.938 519.265 278.938L512.501 272.357L504.823 261.205C504.823 261.205 501.35 258.098 499.522 261.205Z" fill="#828282"/>
<path d="M445.602 138.906L453.28 212.578C453.28 212.578 457.484 257.549 458.215 258.281C458.947 259.012 463.7 261.388 474.12 258.281L471.743 199.416L476.131 162.854L486.185 188.082C486.185 188.082 488.562 255.904 490.207 255.904C491.852 255.904 501.907 259.195 504.283 255.173C506.66 251.151 506.294 207.825 506.294 207.825C506.294 207.825 505.197 139.455 497.154 137.261C489.11 135.067 445.602 138.906 445.602 138.906Z" fill="#ADA9BB"/>
<path d="M466.801 44.9425C473.768 44.9425 479.415 39.2951 479.415 32.3287C479.415 25.3622 473.768 19.7148 466.801 19.7148C459.835 19.7148 454.188 25.3622 454.188 32.3287C454.188 39.2951 459.835 44.9425 466.801 44.9425Z" fill="#FFB9B9"/>
<path d="M467.53 67.427C467.53 67.427 466.25 59.5662 466.25 58.1038C466.25 56.6413 460.583 55.7272 460.583 55.7272C460.583 55.7272 456.195 50.7914 455.281 51.5226C454.367 52.2539 440.474 61.5771 438.28 62.8568C436.086 64.1365 433.71 69.6207 433.893 69.9864C434.076 70.352 445.41 94.1172 445.41 94.1172C445.41 94.1172 450.346 108.742 446.872 116.42C443.399 124.098 439.011 139.271 445.41 142.379C451.808 145.487 482.886 152.25 488.553 146.401C494.22 140.551 498.242 138.905 499.704 138.905C501.166 138.905 493.671 113.495 495.317 111.118C496.962 108.742 494.585 93.9344 494.585 93.9344L502.995 70.352C502.995 70.352 502.263 57.1897 485.628 54.2648L475.676 49.4395L467.53 67.427Z" fill="#828282"/>
<path d="M433.35 142.198C433.35 142.198 432.436 150.972 432.436 153.532C432.436 156.091 428.049 171.081 434.447 172.91C440.845 174.738 440.297 152.983 440.297 152.983V141.832L433.35 142.198Z" fill="#FFB9B9"/>
<path d="M509.216 133.971C509.216 133.971 510.313 142.38 509.765 144.208C509.216 146.036 515.066 161.941 507.205 162.855C499.344 163.769 501.355 143.842 501.355 143.842V133.971L509.216 133.971Z" fill="#FFB9B9"/>
<path d="M436.639 67.793L433.897 69.9867C433.897 69.9867 430.241 128.12 431.155 132.507C432.069 136.895 427.865 143.11 431.521 143.659C435.177 144.207 439.564 146.584 441.575 145.121C443.586 143.659 443.952 138.357 444.683 137.078C445.414 135.798 446.694 120.625 446.694 120.625C446.694 120.625 450.533 105.452 448.156 94.1175C445.78 82.7833 443.586 71.2663 443.586 71.2663L436.639 67.793Z" fill="#575A89"/>
<path d="M494.595 63.2246L503.004 70.3542L509.403 107.647C509.403 107.647 513.425 136.714 510.317 137.08C507.209 137.445 502.456 136.531 500.445 137.08C498.434 137.628 496.789 136.165 496.789 136.165C496.789 136.165 494.595 124.466 494.595 124.283C494.595 124.1 493.133 110.755 493.133 110.755L491.305 95.7646L494.047 79.3118L494.595 63.2246Z" fill="#575A89"/>
<path d="M457.116 24.632C457.116 24.632 454.261 17.2084 458.401 14.7815L459.543 18.065C459.543 18.065 469.964 11.7835 472.677 13.2111L470.107 16.6374C470.107 16.6374 482.242 16.6374 483.098 21.3485L478.816 21.4913C478.816 21.4913 483.384 24.4893 483.527 29.3431L474.39 29.9142L478.816 32.4839C478.816 32.4839 462.255 34.7681 458.258 28.2011L457.116 24.632Z" fill="#2F2E41"/>
<path d="M454.641 24.9253C454.641 24.9253 457.931 31.5064 462.319 29.8612C466.706 28.2159 462.319 22.1832 462.319 22.1832L459.394 20.7207L454.641 24.9253Z" fill="#2F2E41"/>
</g>
<defs>
<clipPath id="clip0_515_447">
<rect width="550" height="318.014" fill="white"/>
</clipPath>
</defs>
</svg>
