<svg width="50" height="51" viewBox="0 0 50 51" fill="none" xmlns="http://www.w3.org/2000/svg">
<path d="M10.3467 26.7792C13.8277 27.5418 16.888 29.0155 19.6795 30.9826C21.6221 32.3515 23.6523 33.5843 26.1435 33.9996C28.3357 34.3651 30.1456 33.4826 30.7616 31.5865C31.2251 30.1602 30.5967 28.8676 29.7167 27.7322C28.0832 25.6245 25.6946 24.7228 22.9634 24.3644C20.7832 24.0782 18.6519 24.4594 16.51 24.6329C14.5137 24.7945 12.5308 24.955 10.572 24.4843C8.18381 23.9105 6.32348 22.6923 5.21094 20.614C5.5253 20.4614 5.60157 20.7289 5.71911 20.8674C7.78976 23.3075 11.3068 23.8495 14.5526 23.1901C17.713 22.5481 20.7336 21.4048 23.9923 21.1102C28.0944 20.7394 31.2478 22.0927 33.5803 25.1782C35.4963 27.7129 35.9737 30.5194 35.5006 33.4697C34.9399 36.9662 31.0014 38.2893 28.2944 37.8608C24.8544 37.3163 22.1902 35.5579 19.725 33.4631C18.0433 32.0341 16.4218 30.5425 14.6802 29.1774C13.7628 28.4583 12.6827 27.8973 11.5852 27.3965C11.1647 27.2047 10.7591 26.9858 10.3467 26.7792Z" fill="white"/>
<path d="M15.0288 0C16.6069 3.39128 19.422 5.78255 21.884 8.41915C22.5918 9.17718 23.4379 9.70636 24.5113 9.91671C25.2532 10.0621 25.8792 10.404 26.4727 10.8218C27.3229 11.4203 27.6361 12.1963 27.489 13.1504C27.426 13.5584 27.2826 13.9618 27.3869 14.4387C28.4017 14.5893 28.4661 15.3773 28.5196 16.0257C29.0171 16.362 29.4177 16.3348 29.8529 16.2286C30.8922 15.9749 31.4437 16.4783 31.2146 17.4366C30.9468 18.5567 30.2843 19.4565 29.3257 20.3428C29.1754 19.5797 29.7937 18.9481 29.3693 18.2712C29.0809 17.9818 28.6459 17.8886 28.2265 17.9645C27.2934 18.1335 26.7555 17.6658 26.5284 16.9925C26.1597 15.8993 25.3129 15.7176 24.2707 15.793C23.231 15.8682 22.3187 15.6847 21.7868 14.7863C21.536 14.3629 21.2569 13.8898 21.2331 13.4289C21.0806 10.484 19.715 7.99665 17.8977 5.64575C16.7309 4.13628 15.8058 2.49638 15.0568 0.77829C14.9747 0.589963 14.8502 0.401112 15.0288 0ZM24.2354 11.7452C24.9321 13.2613 25.6862 13.7005 26.605 13.1405C26.5438 12.8489 26.6391 12.5064 26.36 12.1943C25.6913 12.0529 25.0139 11.9098 24.2354 11.7452Z" fill="white"/>
<path d="M15.3423 6.66176C13.8671 6.0262 12.5357 5.95295 11.1166 6.24346C11.6099 4.62138 10.3497 4.01189 9.17969 3.26367C11.239 3.46567 14.102 4.95126 15.3423 6.66176Z" fill="white"/>
<path d="M9.01731 6.7944C8.35165 6.97485 7.80638 7.03599 7.30996 7.31266C6.84798 7.57013 6.57503 8.0119 6.01456 8.27909C5.73097 7.69722 5.43302 7.1481 4.86225 6.7906C4.31247 6.44624 3.6546 6.39502 2.97656 6.24226C4.98202 5.62736 7.28716 5.82354 9.01731 6.7944Z" fill="white"/>
<path d="M4.49078 10.0536C4.20408 10.4141 3.82913 10.6889 3.59252 11.0734C3.35249 11.4634 3.43826 11.9205 3.20937 12.4058C2.33235 11.2236 1.20868 11.4902 0 11.8929C1.15522 10.5125 3.1039 9.72872 4.49078 10.0536Z" fill="white"/>
<path d="M3.1013 14.416C3.19062 15.1235 3.27909 15.8242 3.3809 16.6304C2.19466 16.0341 1.21995 16.3317 0.328125 17.1746C0.553632 16.1541 1.97637 14.7625 3.1013 14.416Z" fill="white"/>
<path d="M37.7783 20.944C35.0104 21.4938 33.9358 21.8121 32.0797 22.709C30.4515 23.4902 30.0933 24.1268 30.8748 24.7923C31.1679 25.0816 31.2656 27.4831 31.2656 34.8034C31.2656 43.6572 31.233 44.5252 30.6794 45.046C30.1258 45.5958 30.1258 45.6247 30.9074 46.0587C31.3633 46.3191 32.0145 47.2739 32.4379 48.2866C33.2194 50.0516 33.7079 50.4856 33.7079 49.444C33.7079 48.6049 34.4243 47.3607 35.2709 46.6663C35.6943 46.3191 36.9317 45.914 38.2017 45.7115C43.5747 44.8145 47.5475 42.4709 49.3059 39.1724C50.2177 37.4075 50.2503 34.5719 49.3059 32.8359C48.5895 31.4471 46.4729 29.5374 44.8447 28.7851C43.705 28.2643 43.5747 27.975 44.226 27.541C45.0401 26.9334 47.7429 25.7181 48.1988 25.7181C48.8826 25.7181 48.8175 25.0527 48.0034 23.7796C47.059 22.2461 46.4403 21.6963 45.0401 21.0598C43.6073 20.4232 40.8068 20.3654 37.7783 20.944ZM43.705 23.5481C44.1283 23.9532 44.4539 24.474 44.4539 24.7055C44.4539 25.0816 42.1745 26.8176 39.3088 28.6115C37.6807 29.6532 37.7783 30.0004 39.9601 30.579C41.8488 31.0709 44.2911 32.7491 45.7239 34.5141C46.766 35.8161 46.8637 36.1054 46.8962 38.0151C46.8962 39.8379 46.7985 40.214 45.9844 41.1689C44.0306 43.3968 42.9886 43.9755 39.5042 44.5541C37.8435 44.8435 37.1271 44.8435 36.4758 44.5831L35.6617 44.2359V35.1217C35.6617 25.0527 35.6943 24.9369 37.6807 23.577C39.6019 22.3039 42.5001 22.275 43.705 23.5481Z" fill="white"/>
<path d="M23.7545 19.6149C20.5307 19.4352 17.692 20.7028 14.7449 21.5208C10.5327 22.6899 6.07909 20.6084 4.90917 16.8238C3.71398 12.9575 5.59914 8.38151 10.7212 7.20721C13.3552 6.60333 15.9481 7.06498 18.2735 8.3732C19.3325 8.96896 19.6193 10.1017 19.916 11.109C20.2308 12.1777 20.3051 13.3053 20.4782 14.408C20.4986 14.5383 20.4578 14.6656 20.3068 14.7625C19.3141 13.4333 18.2105 12.222 16.5531 11.5167C14.3592 10.583 11.6655 10.9198 9.83762 12.3692C8.48212 13.444 8.51811 14.835 8.75821 16.2412C9.16541 18.626 11.3191 20.1414 13.9797 20.1811C15.9445 20.2104 17.8221 19.8098 19.7202 19.4976C21.0863 19.273 22.4201 19.3441 23.7545 19.6149Z" fill="white"/>
</svg>
